<mxfile host="app.diagrams.net" modified="2023-07-23T13:04:55.278Z" agent="Mozilla/5.0 (Windows NT 10.0; Win64; x64) AppleWebKit/537.36 (KHTML, like Gecko) Chrome/114.0.0.0 Safari/537.36 Edg/114.0.1823.82" etag="p3LQDm1Btz9mhxVGU1ln" version="21.6.5" type="github">
  <diagram name="运行流程" id="2S81PAqs1eHpY0wV6mBe">
    <mxGraphModel dx="2013" dy="718" grid="1" gridSize="10" guides="1" tooltips="1" connect="1" arrows="1" fold="1" page="1" pageScale="1" pageWidth="827" pageHeight="1169" math="0" shadow="0">
      <root>
        <mxCell id="0" />
        <mxCell id="1" parent="0" />
        <mxCell id="IOWxc3t3CkJwwFOyvp9J-6" value="" style="edgeStyle=orthogonalEdgeStyle;rounded=0;orthogonalLoop=1;jettySize=auto;html=1;entryX=0.5;entryY=0;entryDx=0;entryDy=0;entryPerimeter=0;" edge="1" parent="1" source="IOWxc3t3CkJwwFOyvp9J-4" target="IOWxc3t3CkJwwFOyvp9J-8">
          <mxGeometry relative="1" as="geometry">
            <mxPoint x="387" y="160" as="targetPoint" />
          </mxGeometry>
        </mxCell>
        <mxCell id="IOWxc3t3CkJwwFOyvp9J-4" value="角色：科普作家&lt;br&gt;目标描述：写一篇太空的文章" style="strokeWidth=2;html=1;shape=mxgraph.flowchart.terminator;whiteSpace=wrap;" vertex="1" parent="1">
          <mxGeometry x="299" y="40" width="176" height="60" as="geometry" />
        </mxCell>
        <mxCell id="IOWxc3t3CkJwwFOyvp9J-10" style="edgeStyle=orthogonalEdgeStyle;rounded=0;orthogonalLoop=1;jettySize=auto;html=1;entryX=0.5;entryY=1;entryDx=0;entryDy=0;entryPerimeter=0;" edge="1" parent="1" source="IOWxc3t3CkJwwFOyvp9J-8" target="IOWxc3t3CkJwwFOyvp9J-9">
          <mxGeometry relative="1" as="geometry" />
        </mxCell>
        <mxCell id="IOWxc3t3CkJwwFOyvp9J-11" value="是" style="edgeLabel;html=1;align=center;verticalAlign=middle;resizable=0;points=[];" vertex="1" connectable="0" parent="IOWxc3t3CkJwwFOyvp9J-10">
          <mxGeometry x="-0.2105" relative="1" as="geometry">
            <mxPoint as="offset" />
          </mxGeometry>
        </mxCell>
        <mxCell id="IOWxc3t3CkJwwFOyvp9J-15" value="" style="edgeStyle=orthogonalEdgeStyle;rounded=0;orthogonalLoop=1;jettySize=auto;html=1;" edge="1" parent="1" source="IOWxc3t3CkJwwFOyvp9J-8" target="IOWxc3t3CkJwwFOyvp9J-14">
          <mxGeometry relative="1" as="geometry" />
        </mxCell>
        <mxCell id="IOWxc3t3CkJwwFOyvp9J-8" value="Pinecone（向量数据库）是否存在" style="strokeWidth=2;html=1;shape=mxgraph.flowchart.decision;whiteSpace=wrap;" vertex="1" parent="1">
          <mxGeometry x="262" y="160" width="250" height="110" as="geometry" />
        </mxCell>
        <mxCell id="IOWxc3t3CkJwwFOyvp9J-9" value="返回结果" style="strokeWidth=2;html=1;shape=mxgraph.flowchart.terminator;whiteSpace=wrap;" vertex="1" parent="1">
          <mxGeometry x="650" y="40" width="146" height="60" as="geometry" />
        </mxCell>
        <mxCell id="IOWxc3t3CkJwwFOyvp9J-22" value="" style="edgeStyle=orthogonalEdgeStyle;rounded=0;orthogonalLoop=1;jettySize=auto;html=1;" edge="1" parent="1" source="IOWxc3t3CkJwwFOyvp9J-14" target="IOWxc3t3CkJwwFOyvp9J-21">
          <mxGeometry relative="1" as="geometry" />
        </mxCell>
        <mxCell id="IOWxc3t3CkJwwFOyvp9J-14" value="生成若干子任务提示" style="whiteSpace=wrap;html=1;strokeWidth=2;" vertex="1" parent="1">
          <mxGeometry x="327" y="330" width="120" height="60" as="geometry" />
        </mxCell>
        <mxCell id="IOWxc3t3CkJwwFOyvp9J-16" value="" style="strokeWidth=2;html=1;shape=mxgraph.flowchart.annotation_2;align=left;labelPosition=right;pointerEvents=1;" vertex="1" parent="1">
          <mxGeometry x="447" y="310" width="50" height="100" as="geometry" />
        </mxCell>
        <mxCell id="IOWxc3t3CkJwwFOyvp9J-17" value="1、太空是什么？" style="text;html=1;align=center;verticalAlign=middle;resizable=0;points=[];autosize=1;strokeColor=none;fillColor=none;" vertex="1" parent="1">
          <mxGeometry x="490" y="320" width="110" height="30" as="geometry" />
        </mxCell>
        <mxCell id="IOWxc3t3CkJwwFOyvp9J-18" value="2、太空包含哪些东西？" style="text;html=1;align=center;verticalAlign=middle;resizable=0;points=[];autosize=1;strokeColor=none;fillColor=none;" vertex="1" parent="1">
          <mxGeometry x="489" y="345" width="150" height="30" as="geometry" />
        </mxCell>
        <mxCell id="IOWxc3t3CkJwwFOyvp9J-19" value="3、..." style="text;html=1;align=center;verticalAlign=middle;resizable=0;points=[];autosize=1;strokeColor=none;fillColor=none;" vertex="1" parent="1">
          <mxGeometry x="490" y="370" width="50" height="30" as="geometry" />
        </mxCell>
        <mxCell id="IOWxc3t3CkJwwFOyvp9J-43" value="" style="edgeStyle=orthogonalEdgeStyle;rounded=0;orthogonalLoop=1;jettySize=auto;html=1;entryX=0.5;entryY=0;entryDx=0;entryDy=0;" edge="1" parent="1" source="IOWxc3t3CkJwwFOyvp9J-21" target="IOWxc3t3CkJwwFOyvp9J-45">
          <mxGeometry relative="1" as="geometry">
            <mxPoint x="390" y="540" as="targetPoint" />
          </mxGeometry>
        </mxCell>
        <mxCell id="IOWxc3t3CkJwwFOyvp9J-21" value="基于这些子任务提示向GPT提问获取答案" style="whiteSpace=wrap;html=1;strokeWidth=2;" vertex="1" parent="1">
          <mxGeometry x="260.25" y="440" width="253.5" height="60" as="geometry" />
        </mxCell>
        <mxCell id="IOWxc3t3CkJwwFOyvp9J-31" value="" style="edgeStyle=orthogonalEdgeStyle;rounded=0;orthogonalLoop=1;jettySize=auto;html=1;entryX=0.5;entryY=1;entryDx=0;entryDy=0;entryPerimeter=0;" edge="1" parent="1" source="IOWxc3t3CkJwwFOyvp9J-27" target="IOWxc3t3CkJwwFOyvp9J-9">
          <mxGeometry relative="1" as="geometry">
            <mxPoint x="663" y="797.5" as="targetPoint" />
          </mxGeometry>
        </mxCell>
        <mxCell id="IOWxc3t3CkJwwFOyvp9J-32" value="是" style="edgeLabel;html=1;align=center;verticalAlign=middle;resizable=0;points=[];" vertex="1" connectable="0" parent="IOWxc3t3CkJwwFOyvp9J-31">
          <mxGeometry x="-0.2958" y="3" relative="1" as="geometry">
            <mxPoint x="-120" y="83" as="offset" />
          </mxGeometry>
        </mxCell>
        <mxCell id="IOWxc3t3CkJwwFOyvp9J-36" value="" style="edgeStyle=orthogonalEdgeStyle;rounded=0;orthogonalLoop=1;jettySize=auto;html=1;" edge="1" parent="1" source="IOWxc3t3CkJwwFOyvp9J-27" target="IOWxc3t3CkJwwFOyvp9J-35">
          <mxGeometry relative="1" as="geometry" />
        </mxCell>
        <mxCell id="IOWxc3t3CkJwwFOyvp9J-27" value="询问用户文章内容是否满意" style="rhombus;whiteSpace=wrap;html=1;strokeWidth=2;" vertex="1" parent="1">
          <mxGeometry x="300.5" y="750" width="173" height="95" as="geometry" />
        </mxCell>
        <mxCell id="IOWxc3t3CkJwwFOyvp9J-38" style="edgeStyle=orthogonalEdgeStyle;rounded=0;orthogonalLoop=1;jettySize=auto;html=1;entryX=0;entryY=0.5;entryDx=0;entryDy=0;exitX=0.5;exitY=0;exitDx=0;exitDy=0;" edge="1" parent="1" source="IOWxc3t3CkJwwFOyvp9J-35" target="IOWxc3t3CkJwwFOyvp9J-14">
          <mxGeometry relative="1" as="geometry" />
        </mxCell>
        <mxCell id="IOWxc3t3CkJwwFOyvp9J-35" value="基于反馈重新生成若干子任务修改文章" style="whiteSpace=wrap;html=1;strokeWidth=2;" vertex="1" parent="1">
          <mxGeometry x="-20" y="767.5" width="214" height="60" as="geometry" />
        </mxCell>
        <mxCell id="IOWxc3t3CkJwwFOyvp9J-41" value="&lt;font style=&quot;font-size: 14px;&quot;&gt;1、如何理解用户输入的任务？&lt;br style=&quot;border-color: var(--border-color);&quot;&gt;零样本学习（Zero Shot Learning），只通过用户给的角色和目标描述&lt;br&gt;学习到相应概念，通过这些概念生成提示和任务&lt;br&gt;&lt;br&gt;2、如何知道将任务拆解成哪些子任务呢？&lt;br&gt;多任务学习（MultiTask Learning），具备任务拆解，理解子任务之间&lt;br&gt;的关系和优化、协调它们的能力&lt;br&gt;&lt;br&gt;3、如何给GPT生成提示？&lt;br&gt;少量样本学习（Few Shot Learning），基于少量样本示例进行模拟&lt;br&gt;&lt;br&gt;4、如何评估是否完成子任务或者达成目标？&lt;br&gt;元学习（Meta Learning），基于反馈来学习和改进执行方法，可&lt;br&gt;以是自己的反馈，也可以是别人的。&lt;br&gt;&lt;/font&gt;" style="text;html=1;align=left;verticalAlign=middle;resizable=0;points=[];autosize=1;strokeColor=#d6b656;fillColor=#fff2cc;" vertex="1" parent="1">
          <mxGeometry x="-200" y="15" width="450" height="250" as="geometry" />
        </mxCell>
        <mxCell id="IOWxc3t3CkJwwFOyvp9J-50" style="edgeStyle=orthogonalEdgeStyle;rounded=0;orthogonalLoop=1;jettySize=auto;html=1;" edge="1" parent="1" source="IOWxc3t3CkJwwFOyvp9J-45" target="IOWxc3t3CkJwwFOyvp9J-48">
          <mxGeometry relative="1" as="geometry" />
        </mxCell>
        <mxCell id="IOWxc3t3CkJwwFOyvp9J-45" value="将答案写入Pinecone" style="whiteSpace=wrap;html=1;strokeWidth=2;" vertex="1" parent="1">
          <mxGeometry x="260.25" y="546" width="253.5" height="60" as="geometry" />
        </mxCell>
        <mxCell id="IOWxc3t3CkJwwFOyvp9J-51" style="edgeStyle=orthogonalEdgeStyle;rounded=0;orthogonalLoop=1;jettySize=auto;html=1;entryX=0.5;entryY=0;entryDx=0;entryDy=0;" edge="1" parent="1" source="IOWxc3t3CkJwwFOyvp9J-48" target="IOWxc3t3CkJwwFOyvp9J-27">
          <mxGeometry relative="1" as="geometry" />
        </mxCell>
        <mxCell id="IOWxc3t3CkJwwFOyvp9J-48" value="汇总结果生成整篇文章" style="whiteSpace=wrap;html=1;strokeWidth=2;" vertex="1" parent="1">
          <mxGeometry x="260.25" y="650" width="253.5" height="60" as="geometry" />
        </mxCell>
      </root>
    </mxGraphModel>
  </diagram>
</mxfile>
